<svg width="15" height="20" fill="none" xmlns="http://www.w3.org/2000/svg"><path d="M7.25 20c-.433 0-.825-.104-1.175-.312a2.276 2.276 0 0 1-.825-.838c-.55 0-1.02-.196-1.412-.587a1.927 1.927 0 0 1-.588-1.413V13.3a7.24 7.24 0 0 1-2.362-2.575A7.044 7.044 0 0 1 0 7.25c0-2.017.704-3.73 2.112-5.138C3.521.704 5.233 0 7.25 0s3.729.704 5.137 2.112C13.796 3.521 14.5 5.233 14.5 7.25c0 1.283-.296 2.45-.887 3.5a7.313 7.313 0 0 1-2.363 2.55v3.55c0 .55-.196 1.021-.587 1.413a1.928 1.928 0 0 1-1.413.587c-.2.35-.475.63-.825.838-.35.208-.742.312-1.175.312Zm-2-3.15h4v-.9h-4v.9Zm0-1.9h4V14h-4v.95ZM5.05 12H6.5V9.3L4.3 7.1l1.05-1.05 1.9 1.9 1.9-1.9L10.2 7.1 8 9.3V12h1.45a5.474 5.474 0 0 0 2.2-1.913c.567-.841.85-1.787.85-2.837 0-1.467-.508-2.708-1.525-3.725S8.717 2 7.25 2s-2.708.508-3.725 1.525S2 5.783 2 7.25c0 1.05.283 1.996.85 2.837.567.842 1.3 1.48 2.2 1.913Z" fill="#fff"/></svg>