<svg width="20" height="18" fill="none" xmlns="http://www.w3.org/2000/svg"><path d="M10 12c-.55 0-1.02-.196-1.412-.588A1.923 1.923 0 0 1 8 10c0-.55.196-1.021.588-1.413A1.925 1.925 0 0 1 10 8c.55 0 1.021.196 1.413.587.391.392.587.863.587 1.413s-.196 1.02-.587 1.412A1.927 1.927 0 0 1 10 12Zm-4.075 2.425a6.29 6.29 0 0 1-1.4-1.962A5.808 5.808 0 0 1 4 10c0-1.667.583-3.083 1.75-4.25C6.917 4.583 8.333 4 10 4c1.667 0 3.083.583 4.25 1.75C15.417 6.917 16 8.333 16 10c0 .883-.175 1.708-.525 2.475a5.958 5.958 0 0 1-1.4 1.95L12.65 13c.417-.383.746-.833.987-1.35A3.843 3.843 0 0 0 14 10c0-1.1-.392-2.042-1.175-2.825C12.042 6.392 11.1 6 10 6s-2.042.392-2.825 1.175C6.392 7.958 6 8.9 6 10c0 .6.121 1.154.363 1.662.241.509.57.955.987 1.338l-1.425 1.425ZM3.1 17.25a10.339 10.339 0 0 1-2.262-3.238C.279 12.771 0 11.433 0 10c0-1.383.263-2.683.788-3.9a10.092 10.092 0 0 1 2.137-3.175c.9-.9 1.958-1.613 3.175-2.138A9.743 9.743 0 0 1 10 0c1.383 0 2.683.262 3.9.787a10.105 10.105 0 0 1 3.175 2.138c.9.9 1.612 1.958 2.137 3.175A9.733 9.733 0 0 1 20 10a9.761 9.761 0 0 1-.837 4.025A10.02 10.02 0 0 1 16.9 17.25l-1.4-1.4a8.194 8.194 0 0 0 1.825-2.612A7.857 7.857 0 0 0 18 10c0-2.233-.775-4.125-2.325-5.675C14.125 2.775 12.233 2 10 2c-2.233 0-4.125.775-5.675 2.325C2.775 5.875 2 7.767 2 10c0 1.15.225 2.225.675 3.225.45 1 1.067 1.867 1.85 2.6L3.1 17.25Z" fill="#fff"/><path d="M8.588 11.412c.391.392.862.588 1.412.588.55 0 1.021-.196 1.413-.588.391-.391.587-.862.587-1.412 0-.55-.196-1.021-.587-1.413A1.928 1.928 0 0 0 10 8c-.55 0-1.02.196-1.412.587A1.927 1.927 0 0 0 8 10c0 .55.196 1.02.588 1.412Z" fill="#EB5757"/></svg>