<svg width="24" height="20" viewBox="0 0 24 20" fill="none" xmlns="http://www.w3.org/2000/svg">
<path d="M8.17755 12.25C7.76213 12.25 7.4112 12.129 7.12476 11.887C6.83752 11.6457 6.69391 11.35 6.69391 11C6.69391 10.65 6.83752 10.3543 7.12476 10.113C7.4112 9.871 7.76213 9.75 8.17755 9.75C8.59297 9.75 8.9439 9.871 9.23035 10.113C9.51758 10.3543 9.6612 10.65 9.6612 11C9.6612 11.35 9.51758 11.6457 9.23035 11.887C8.9439 12.129 8.59297 12.25 8.17755 12.25ZM15.299 12.25C14.8836 12.25 14.5327 12.129 14.2463 11.887C13.959 11.6457 13.8154 11.35 13.8154 11C13.8154 10.65 13.959 10.3543 14.2463 10.113C14.5327 9.871 14.8836 9.75 15.299 9.75C15.7145 9.75 16.0654 9.871 16.3518 10.113C16.6391 10.3543 16.7827 10.65 16.7827 11C16.7827 11.35 16.6391 11.6457 16.3518 11.887C16.0654 12.129 15.7145 12.25 15.299 12.25ZM11.7383 18C14.3891 18 16.6343 17.225 18.474 15.675C20.3138 14.125 21.2336 12.2333 21.2336 10C21.2336 9.6 21.204 9.21233 21.1446 8.837C21.0853 8.46233 20.9765 8.1 20.8182 7.75C20.4028 7.83333 19.9874 7.896 19.5719 7.938C19.1565 7.97933 18.7213 8 18.2663 8C16.4662 8 14.7649 7.675 13.1626 7.025C11.5603 6.375 10.1953 5.46667 9.06774 4.3C8.43472 5.6 7.52989 6.72933 6.35326 7.688C5.17584 8.646 3.80575 9.36667 2.24297 9.85V10C2.24297 12.2333 3.16283 14.125 5.00255 15.675C6.84227 17.225 9.08752 18 11.7383 18ZM11.7383 20C10.0964 20 8.55341 19.7373 7.10933 19.212C5.66525 18.6873 4.40909 17.975 3.34087 17.075C2.27265 16.175 1.42717 15.1167 0.80443 13.9C0.180904 12.6833 -0.130859 11.3833 -0.130859 10C-0.130859 8.61667 0.180904 7.31667 0.80443 6.1C1.42717 4.88333 2.27265 3.825 3.34087 2.925C4.40909 2.025 5.66525 1.31233 7.10933 0.787C8.55341 0.262333 10.0964 0 11.7383 0C13.3802 0 14.9232 0.262333 16.3673 0.787C17.8114 1.31233 19.0675 2.025 20.1357 2.925C21.204 3.825 22.0494 4.88333 22.6722 6.1C23.2957 7.31667 23.6075 8.61667 23.6075 10C23.6075 11.3833 23.2957 12.6833 22.6722 13.9C22.0494 15.1167 21.204 16.175 20.1357 17.075C19.0675 17.975 17.8114 18.6873 16.3673 19.212C14.9232 19.7373 13.3802 20 11.7383 20ZM10.136 2.125C10.9668 3.29167 12.0944 4.22933 13.5187 4.938C14.943 5.646 16.5255 6 18.2663 6C18.5433 6 18.8103 5.98767 19.0675 5.963C19.3247 5.93767 19.5917 5.90833 19.8687 5.875C19.0378 4.70833 17.9103 3.77067 16.486 3.062C15.0617 2.354 13.4791 2 11.7383 2C11.4614 2 11.1943 2.01233 10.9371 2.037C10.68 2.06233 10.4129 2.09167 10.136 2.125ZM2.74741 7.475C3.75629 6.99167 4.63659 6.36667 5.3883 5.6C6.14001 4.83333 6.7038 3.975 7.07965 3.025C6.07078 3.50833 5.19048 4.13333 4.43877 4.9C3.68705 5.66667 3.12327 6.525 2.74741 7.475Z" fill="#1C1B1F"/>
</svg>
