<svg width="23" height="23" viewBox="0 0 23 23" fill="none" xmlns="http://www.w3.org/2000/svg">
<path d="M22.6274 2.08645C22.776 1.25441 21.8894 0.624719 21.1527 1.03909L0.882776 12.441C0.140159 12.8587 0.226723 13.9544 1.02572 14.2503L6.08992 16.1259C6.44535 16.2575 6.84466 16.1769 7.12118 15.9177L10.4057 12.8385C11.2947 12.005 12.6186 13.1845 11.893 14.1635L9.50633 17.3833C9.504 17.3864 9.50533 17.3909 9.509 17.3923C9.50454 17.3909 9.50003 17.3943 9.50003 17.3989V21.2968C9.50003 22.2252 10.6551 22.6525 11.2593 21.9476L13.3479 19.5109C13.6204 19.193 14.062 19.0785 14.4545 19.2239L18.1285 20.5847C18.7129 20.8011 19.3507 20.4362 19.4603 19.8227L22.6274 2.08645Z" fill="white"/>
</svg>
