<svg width="14" height="15" viewBox="0 0 14 15" fill="none" xmlns="http://www.w3.org/2000/svg">
<path d="M8.29492 9.42204C8.48381 9.42204 8.64781 9.3527 8.78692 9.21404C8.92559 9.07493 8.99492 8.91093 8.99492 8.72204C8.99492 8.53315 8.92559 8.36915 8.78692 8.23004C8.64781 8.09137 8.48381 8.02204 8.29492 8.02204C8.10603 8.02204 7.94225 8.09137 7.80359 8.23004C7.66448 8.36915 7.59492 8.53315 7.59492 8.72204C7.59492 8.91093 7.66448 9.07493 7.80359 9.21404C7.94225 9.3527 8.10603 9.42204 8.29492 9.42204ZM7.79492 7.2887H8.79492C8.79492 6.96648 8.82825 6.73026 8.89492 6.58004C8.96159 6.43026 9.11714 6.23315 9.36159 5.9887C9.69492 5.65537 9.91714 5.38582 10.0283 5.18004C10.1394 4.9747 10.1949 4.73315 10.1949 4.45537C10.1949 3.95537 10.0198 3.54715 9.66959 3.2307C9.31981 2.91382 8.86159 2.75537 8.29492 2.75537C7.83937 2.75537 7.44226 2.88315 7.10359 3.1387C6.76448 3.39426 6.52825 3.73315 6.39492 4.15537L7.29492 4.52204C7.39492 4.24426 7.53114 4.03582 7.70359 3.8967C7.87559 3.75804 8.0727 3.6887 8.29492 3.6887C8.56159 3.6887 8.77825 3.76359 8.94492 3.91337C9.11159 4.06359 9.19492 4.26648 9.19492 4.52204C9.19492 4.67759 9.15048 4.8247 9.06159 4.96337C8.9727 5.10248 8.81714 5.27759 8.59492 5.4887C8.22825 5.81093 8.00337 6.06359 7.92025 6.2467C7.8367 6.43026 7.79492 6.77759 7.79492 7.2887ZM4.29492 11.422C3.92826 11.422 3.61448 11.2916 3.35359 11.0307C3.09225 10.7694 2.96159 10.4554 2.96159 10.0887V2.0887C2.96159 1.72204 3.09225 1.40804 3.35359 1.1467C3.61448 0.885815 3.92826 0.755371 4.29492 0.755371H12.2949C12.6616 0.755371 12.9756 0.885815 13.2369 1.1467C13.4978 1.40804 13.6283 1.72204 13.6283 2.0887V10.0887C13.6283 10.4554 13.4978 10.7694 13.2369 11.0307C12.9756 11.2916 12.6616 11.422 12.2949 11.422H4.29492ZM4.29492 10.0887H12.2949V2.0887H4.29492V10.0887ZM1.62826 14.0887C1.26159 14.0887 0.947811 13.9583 0.686922 13.6974C0.425589 13.436 0.294922 13.122 0.294922 12.7554V3.42204H1.62826V12.7554H10.9616V14.0887H1.62826Z" fill="#828282"/>
</svg>
