<svg width="20" height="18" viewBox="0 0 20 18" fill="none" xmlns="http://www.w3.org/2000/svg">
<path d="M10 12C9.45 12 8.97933 11.804 8.588 11.412C8.196 11.0207 8 10.55 8 10C8 9.45 8.196 8.979 8.588 8.587C8.97933 8.19567 9.45 8 10 8C10.55 8 11.021 8.19567 11.413 8.587C11.8043 8.979 12 9.45 12 10C12 10.55 11.8043 11.0207 11.413 11.412C11.021 11.804 10.55 12 10 12ZM5.925 14.425C5.34167 13.875 4.875 13.221 4.525 12.463C4.175 11.7043 4 10.8833 4 10C4 8.33333 4.58333 6.91667 5.75 5.75C6.91667 4.58333 8.33333 4 10 4C11.6667 4 13.0833 4.58333 14.25 5.75C15.4167 6.91667 16 8.33333 16 10C16 10.8833 15.825 11.7083 15.475 12.475C15.125 13.2417 14.6583 13.8917 14.075 14.425L12.65 13C13.0667 12.6167 13.3957 12.1667 13.637 11.65C13.879 11.1333 14 10.5833 14 10C14 8.9 13.6083 7.95833 12.825 7.175C12.0417 6.39167 11.1 6 10 6C8.9 6 7.95833 6.39167 7.175 7.175C6.39167 7.95833 6 8.9 6 10C6 10.6 6.121 11.154 6.363 11.662C6.60433 12.1707 6.93333 12.6167 7.35 13L5.925 14.425ZM3.1 17.25C2.15 16.3333 1.396 15.254 0.838 14.012C0.279333 12.7707 0 11.4333 0 10C0 8.61667 0.262667 7.31667 0.788 6.1C1.31267 4.88333 2.025 3.825 2.925 2.925C3.825 2.025 4.88333 1.31233 6.1 0.787C7.31667 0.262333 8.61667 0 10 0C11.3833 0 12.6833 0.262333 13.9 0.787C15.1167 1.31233 16.175 2.025 17.075 2.925C17.975 3.825 18.6873 4.88333 19.212 6.1C19.7373 7.31667 20 8.61667 20 10C20 11.4333 19.721 12.775 19.163 14.025C18.6043 15.275 17.85 16.35 16.9 17.25L15.5 15.85C16.2667 15.1167 16.875 14.246 17.325 13.238C17.775 12.2293 18 11.15 18 10C18 7.76667 17.225 5.875 15.675 4.325C14.125 2.775 12.2333 2 10 2C7.76667 2 5.875 2.775 4.325 4.325C2.775 5.875 2 7.76667 2 10C2 11.15 2.225 12.225 2.675 13.225C3.125 14.225 3.74167 15.0917 4.525 15.825L3.1 17.25Z" fill="white"/>
<path d="M8.588 11.412C8.97933 11.804 9.45 12 10 12C10.55 12 11.021 11.804 11.413 11.412C11.8043 11.0207 12 10.55 12 10C12 9.45 11.8043 8.979 11.413 8.587C11.021 8.19567 10.55 8 10 8C9.45 8 8.97933 8.19567 8.588 8.587C8.196 8.979 8 9.45 8 10C8 10.55 8.196 11.0207 8.588 11.412Z" fill="#EB5757"/>
</svg>
